<svg id="Layer_1" data-name="Layer 1" xmlns="http://www.w3.org/2000/svg" width="509.79" height="111.03" viewBox="0 0 509.79 111.03"><title>logo</title><path d="M47.65,47.15a.6.6,0,0,1-.6.88H33.66a1.58,1.58,0,0,1-1.42-.88l-2-7.09H17.51l-2,7.09a1.58,1.58,0,0,1-1.42.88H.67a.6.6,0,0,1-.6-.88L15.34,2.27A2.05,2.05,0,0,1,17,1.39H30.76a2,2,0,0,1,1.62.88ZM23.86,17.55,20.21,30.39h7.3Z" transform="translate(0 -1.39)"/><path d="M88.15,1.39a.67.67,0,0,1,.67,1L73.35,47.09a1.4,1.4,0,0,1-1.22.94H57.26A1.4,1.4,0,0,1,56,47.09L40.56,2.34a.68.68,0,0,1,.68-.95H56.31a1.41,1.41,0,0,1,1.29,1l7.09,27.78,7.1-27.78a1.41,1.41,0,0,1,1.28-.95Z" transform="translate(0 -1.39)"/><path d="M117.9,35.86a.91.91,0,0,1,.87,1l-.94,10.28a1.15,1.15,0,0,1-1.08.94H92.34a1,1,0,0,1-1-.94V2.4a1,1,0,0,1,1-1h12a1,1,0,0,1,1,1V35.86Z" transform="translate(0 -1.39)"/><path d="M7.3,97.21c.2-.67.68-.87,1.22-.54a25.64,25.64,0,0,0,9.39,3.25c2.17,0,3.58-1,3.58-2.57,0-4-19-3.79-19-18.52,0-9.06,6.83-15.08,17.1-15.08a29.26,29.26,0,0,1,15.14,4.87c.54.34.75.88.54,1.22L31,79.37c-.21.67-.68.88-1.22.54a27.51,27.51,0,0,0-9.53-3.52c-2.1,0-3.45,1-3.45,2.44,0,4,19.13,3.72,19.13,18.59,0,9-7,15-17.37,15-5.68,0-11.63-1.75-15-4.46-.54-.4-.74-.88-.54-1.21Z" transform="translate(0 -1.39)"/><path d="M81.79,110.53a.6.6,0,0,1-.6.88H67.8a1.58,1.58,0,0,1-1.42-.88l-2-7.1H51.65l-2,7.1a1.58,1.58,0,0,1-1.42.88H34.81a.6.6,0,0,1-.6-.88L49.48,65.65a2,2,0,0,1,1.62-.88H64.89a2.05,2.05,0,0,1,1.63.88ZM58,80.92,54.35,93.77h7.3Z" transform="translate(0 -1.39)"/><path d="M122,64.77a1,1,0,0,1,1,1v44.68a1,1,0,0,1-1,1H110.26a1.82,1.82,0,0,1-1.42-.88l-11.77-21v20.95a1,1,0,0,1-1,1h-12a1,1,0,0,1-.95-1V65.78a1,1,0,0,1,.95-1H95.79a1.81,1.81,0,0,1,1.56.88l11.69,21V65.78a1,1,0,0,1,.95-1Z" transform="translate(0 -1.39)"/><path d="M144.46,64.77c14.33,0,23.87,9.26,23.87,23.32s-9.54,23.32-23.87,23.32H128.78a1,1,0,0,1-.94-1V65.78a1,1,0,0,1,.94-1Zm.82,34.47c5.2,0,8.72-4.46,8.72-11.15s-3.52-11.15-8.72-11.15h-3.52v22.3Z" transform="translate(0 -1.39)"/><path d="M231.6,64.77a.82.82,0,0,1,.81,1.15l-12.3,44.41a1.67,1.67,0,0,1-1.49,1.08H206.86a1.68,1.68,0,0,1-1.55-1.08l-6.16-23.79L193,110.33a1.68,1.68,0,0,1-1.55,1.08H179.69a1.67,1.67,0,0,1-1.49-1.08L165.9,65.92a.81.81,0,0,1,.81-1.15h15.14a1.67,1.67,0,0,1,1.55,1.15l3.86,20.21,5.2-20.21a1.9,1.9,0,0,1,1.83-1.15H204a1.9,1.9,0,0,1,1.83,1.15l5.2,20.21,3.85-20.21a1.69,1.69,0,0,1,1.56-1.15Z" transform="translate(0 -1.39)"/><path d="M247.15,64.77a1,1,0,0,1,1,1v44.68a1,1,0,0,1-1,1h-12a1,1,0,0,1-.95-1V65.78a1,1,0,0,1,.95-1Z" transform="translate(0 -1.39)"/><path d="M290,107.29c.2.47-.07.94-.61,1.21a27.85,27.85,0,0,1-14.19,3.92c-13.93,0-23.25-9.73-23.25-24.33s9.32-24.34,23.25-24.34a28,28,0,0,1,14.19,3.92c.54.28.81.75.61,1.22l-4.46,9.4a.87.87,0,0,1-1.28.54,15,15,0,0,0-7.85-1.89c-6.08,0-10.13,4.46-10.13,11.15s4,11.15,10.13,11.15a15,15,0,0,0,7.85-1.89.87.87,0,0,1,1.28.54Z" transform="translate(0 -1.39)"/><path d="M331.52,64.77a1,1,0,0,1,1,1v44.68a1,1,0,0,1-1,1H318.88a1,1,0,0,1-.95-1V95.32h-9.46v15.14a1,1,0,0,1-1,1H294.81a1,1,0,0,1-.94-1V65.78a1,1,0,0,1,.94-1h12.65a1,1,0,0,1,1,1V83.42h9.46V65.78a1,1,0,0,1,.95-1Z" transform="translate(0 -1.39)"/><path d="M367.49,64.77c8.85,0,14.73,5.27,14.73,13.18,0,4.87-2.36,8.45-6,9.53,4.25,1.08,7,5.14,7,10.75,0,7.91-5.89,13.18-14.67,13.18H347.14a1,1,0,0,1-.95-1V65.78a1,1,0,0,1,.95-1Zm-3.11,18.32a3.12,3.12,0,1,0,0-6.22h-4.26v6.22Zm1.21,16.22a3.25,3.25,0,1,0,0-6.49h-5.47v6.49Z" transform="translate(0 -1.39)"/><path d="M413.66,99.24a.92.92,0,0,1,.88,1l-1,10.27a1.15,1.15,0,0,1-1.08,1h-24.4a1,1,0,0,1-1-1V65.78a1,1,0,0,1,1-1h12a1,1,0,0,1,1,1V99.24Z" transform="translate(0 -1.39)"/><path d="M440.7,112.36c-14.4,0-24-9.74-24-24.27s9.6-24.4,24-24.4,24,9.73,24,24.4S455.1,112.36,440.7,112.36Zm0-35c-5.54,0-9.26,4.33-9.26,10.75s3.72,10.75,9.26,10.75S450,94.51,450,88.09,446.24,77.34,440.7,77.34Z" transform="translate(0 -1.39)"/><path d="M508.77,82.82a1,1,0,0,1,1,.94v21.5a2.24,2.24,0,0,1-.81,1.62c-4.06,3.45-10.28,5.48-16.77,5.48-14.6,0-24.33-9.74-24.33-24.34s9.73-24.33,24.33-24.33a27.89,27.89,0,0,1,14.2,3.92,1,1,0,0,1,.61,1.21l-3.38,9.94a1,1,0,0,1-1.29.54,21.28,21.28,0,0,0-9.73-2.36c-6.22,0-10.41,4.46-10.41,11.08s4.19,11.22,10.41,11.22c2.5,0,4.19-.47,4.93-1.28V94h-6.22c-.61,0-1-.27-1.08-.75L489.37,84a1,1,0,0,1,1.08-1.14ZM498,96.94v0Z" transform="translate(0 -1.39)"/></svg>